<svg width="192" height="192" viewBox="0 0 192 192" fill="none" xmlns="http://www.w3.org/2000/svg">
<g clip-path="url(#clip0_1_2)">
<path d="M96 192C42.912 192 0 149.088 0 96C0 42.912 42.912 0 96 0C149.088 0 192 42.912 192 96C192 149.088 149.088 192 96 192Z" fill="#8DCAE0"/>
<path fill-rule="evenodd" clip-rule="evenodd" d="M153.6 95.472C155.776 95.472 157.344 95.952 158.304 96.912C159.36 97.872 159.888 99.12 159.888 100.656C159.888 103.152 159.12 105.344 157.584 107.232C156.176 109.152 153.888 110.16 150.72 110.256C143.072 110.448 136.288 109.872 130.368 108.528C123.584 122.768 115.36 134.624 105.696 144.096C96.128 153.472 86.512 158.16 76.848 158.16C66.928 158.16 59.52 152.368 54.624 140.784C49.76 129.232 47.328 113.616 47.328 93.936C47.328 77.104 48.528 62 50.928 48.624C51.792 43.632 52.976 40.272 54.48 38.544C56.112 36.752 58.848 35.856 62.688 35.856C68.992 35.856 72.144 38.576 72.144 44.016C72.144 44.592 72.048 45.648 71.856 47.184C68.976 64.368 67.536 79.952 67.536 93.936C67.536 108.56 68.736 119.696 71.136 127.344C73.632 134.896 77.312 138.672 82.176 138.672C87.136 138.672 92.544 135.232 98.4 128.352C104.224 121.44 109.568 112.784 114.432 102.384C108.608 98.736 104.208 94.048 101.232 88.32C98.288 82.496 96.816 75.808 96.816 68.256C96.816 60.704 97.952 54.336 100.224 49.152C102.624 43.904 105.84 40 109.872 37.44C113.968 34.848 118.496 33.552 123.456 33.552C129.6 33.552 134.432 35.744 137.952 40.128C141.6 44.544 143.424 50.576 143.424 58.224C143.424 69.2 141.024 81.2 136.224 94.224C141.312 95.056 147.104 95.472 153.6 95.472ZM111.264 67.248C111.264 76.624 114.288 83.552 120.336 88.032C124.048 77.312 125.904 68.464 125.904 61.488C125.904 57.488 125.376 54.576 124.32 52.752C123.264 50.832 121.84 49.872 120.048 49.872C117.456 49.872 115.344 51.408 113.712 54.48C112.08 57.456 111.264 61.712 111.264 67.248Z" fill="white"/>
<path d="M113.28 161.28C113.28 158.352 115.632 156 118.56 156H180.48C183.408 156 185.76 158.352 185.76 161.28V182.592C185.76 185.52 183.408 187.872 180.48 187.872H118.56C115.632 187.872 113.28 185.52 113.28 182.592V161.28Z" fill="#1D282C"/>
<path d="M124.613 179H121.482L126.252 165.182H130.017L134.78 179H131.65L128.189 168.339H128.081L124.613 179ZM124.417 173.569H131.812V175.849H124.417V173.569Z" fill="white"/>
<path d="M144.979 165.182H147.9V174.156C147.9 175.163 147.66 176.045 147.178 176.8C146.702 177.556 146.034 178.145 145.174 178.568C144.315 178.987 143.315 179.196 142.172 179.196C141.025 179.196 140.022 178.987 139.163 178.568C138.304 178.145 137.636 177.556 137.159 176.8C136.682 176.045 136.444 175.163 136.444 174.156V165.182H139.365V173.906C139.365 174.432 139.48 174.9 139.709 175.309C139.943 175.719 140.272 176.04 140.694 176.274C141.117 176.508 141.61 176.625 142.172 176.625C142.739 176.625 143.231 176.508 143.65 176.274C144.072 176.04 144.399 175.719 144.628 175.309C144.862 174.9 144.979 174.432 144.979 173.906V165.182Z" fill="white"/>
<path d="M149.778 167.591V165.182H161.126V167.591H156.896V179H154.008V167.591H149.778Z" fill="white"/>
<path d="M162.995 179V165.182H165.917V170.883H171.848V165.182H174.762V179H171.848V173.292H165.917V179H162.995Z" fill="white"/>
</g>
<defs>
<clipPath id="clip0_1_2">
<rect width="192" height="192" fill="white"/>
</clipPath>
</defs>
</svg>
